<?xml version="1.0" encoding="utf-8"?>
<!-- Generator: Adobe Illustrator 23.0.0, SVG Export Plug-In . SVG Version: 6.00 Build 0)  -->
<svg version="1.1" id="Layer_1" xmlns="http://www.w3.org/2000/svg" xmlns:xlink="http://www.w3.org/1999/xlink" x="0px" y="0px"
	 viewBox="0 0 518 146" style="enable-background:new 0 0 518 146;" xml:space="preserve">
<style type="text/css">
	.st0{fill:#142A38;}
	.st1{fill:#F26722;}
	.st2{fill:#171818;}
	.st3{display:none;fill:#F26722;}
	.st4{fill:#FFFFFF;}
</style>
<g>
	<g>
		<path class="st0" d="M221.3,45.6l-13.8,41.6h-8.2L189,56.5l-10.5,30.8h-8.3l-13.8-41.6h8l10.3,31.6l10.8-31.6h7.1l10.5,31.8
			l10.6-31.8H221.3z"/>
		<path class="st0" d="M251.1,68.6v18.6h-7v-3.9c-1.8,2.7-5.2,4.3-10,4.3c-7.3,0-11.8-4-11.8-9.5c0-5.3,3.6-9.5,13.2-9.5h8.2v-0.5
			c0-4.3-2.6-6.9-7.9-6.9c-3.6,0-7.3,1.2-9.6,3.2l-2.9-5.4c3.4-2.6,8.3-3.9,13.4-3.9C245.8,55.1,251.1,59.5,251.1,68.6z M243.7,77.3
			v-3.7H236c-5.1,0-6.4,1.9-6.4,4.2c0,2.7,2.3,4.4,6.1,4.4C239.3,82.3,242.4,80.6,243.7,77.3z"/>
		<path class="st0" d="M291.9,69.1v18.2h-7.4V70c0-5.6-2.8-8.4-7.6-8.4c-5.3,0-8.9,3.2-8.9,9.6v16.1h-7.4V55.5h7.1v4.1
			c2.4-2.9,6.3-4.5,10.9-4.5C286.2,55.1,291.9,59.5,291.9,69.1z"/>
		<path class="st0" d="M327.9,68.6v18.6h-7v-3.9c-1.8,2.7-5.2,4.3-10,4.3c-7.3,0-11.8-4-11.8-9.5c0-5.3,3.6-9.5,13.2-9.5h8.2v-0.5
			c0-4.3-2.6-6.9-7.9-6.9c-3.6,0-7.3,1.2-9.6,3.2l-2.9-5.4c3.4-2.6,8.3-3.9,13.4-3.9C322.6,55.1,327.9,59.5,327.9,68.6z M320.5,77.3
			v-3.7h-7.7c-5.1,0-6.4,1.9-6.4,4.2c0,2.7,2.3,4.4,6.1,4.4C316.1,82.3,319.2,80.6,320.5,77.3z"/>
		<path class="st1" d="M363.5,53.4v11h19.3v7.7h-19.3v15.2h-9.6V45.6h31.4v7.7H363.5z"/>
		<path class="st1" d="M388,71.3c0-9.6,7.4-16.5,17.6-16.5s17.5,6.8,17.5,16.5c0,9.6-7.4,16.5-17.5,16.5S388,80.9,388,71.3z
			 M413.7,71.3c0-5.5-3.5-8.9-8.1-8.9s-8.2,3.3-8.2,8.9s3.6,8.9,8.2,8.9S413.7,76.8,413.7,71.3z"/>
		<path class="st1" d="M426.9,71.3c0-9.6,7.4-16.5,17.6-16.5s17.5,6.8,17.5,16.5c0,9.6-7.4,16.5-17.5,16.5S426.9,80.9,426.9,71.3z
			 M452.7,71.3c0-5.5-3.5-8.9-8.1-8.9s-8.2,3.3-8.2,8.9s3.6,8.9,8.2,8.9S452.7,76.8,452.7,71.3z"/>
		<path class="st1" d="M500.8,43.1v44.1H492v-3.7c-2.3,2.8-5.7,4.2-10,4.2c-9,0-16-6.4-16-16.5s7-16.5,16-16.5
			c3.9,0,7.3,1.2,9.6,3.9V43.1H500.8z M491.7,71.3c0-5.5-3.6-8.9-8.1-8.9c-4.6,0-8.2,3.3-8.2,8.9s3.6,8.9,8.2,8.9
			C488.2,80.1,491.7,76.8,491.7,71.3z"/>
	</g>
	<g>
		<path class="st2" d="M256.7,102.8c0-4.2,3.2-7.3,7.6-7.3c4.3,0,7.5,3.1,7.5,7.3c0,4.2-3.2,7.3-7.5,7.3
			C259.9,110.1,256.7,107,256.7,102.8z M270.2,102.8c0-3.4-2.6-6-6-6c-3.5,0-6.1,2.5-6.1,6c0,3.4,2.6,6,6.1,6
			C267.7,108.7,270.2,106.2,270.2,102.8z"/>
		<path class="st2" d="M284.8,103.7v6.3h-1.5v-6.1c0-2.3-1.2-3.4-3.2-3.4c-2.3,0-3.8,1.4-3.8,3.9v5.7h-1.5V99.2h1.4v2
			c0.8-1.3,2.2-2.1,4.1-2.1C283,99.1,284.8,100.6,284.8,103.7z"/>
		<path class="st2" d="M298.2,105h-9c0.2,2.3,1.9,3.8,4.2,3.8c1.3,0,2.5-0.5,3.3-1.4l0.8,0.9c-1,1.1-2.5,1.8-4.2,1.8
			c-3.4,0-5.7-2.3-5.7-5.5c0-3.2,2.2-5.5,5.3-5.5c3,0,5.2,2.2,5.2,5.5C298.2,104.7,298.2,104.8,298.2,105z M289.1,103.9h7.7
			c-0.2-2.1-1.7-3.6-3.8-3.6C290.9,100.3,289.3,101.8,289.1,103.9z"/>
		<path class="st2" d="M312.2,109.3c-0.6,0.5-1.4,0.8-2.3,0.8c-2,0-3.2-1.1-3.2-3.1v-6.5h-1.9v-1.2h1.9v-2.4h1.5v2.4h3.3v1.2h-3.3
			v6.4c0,1.3,0.7,2,1.9,2c0.6,0,1.2-0.2,1.6-0.6L312.2,109.3z"/>
		<path class="st2" d="M323,103.3v6.7h-1.4v-1.7c-0.7,1.1-1.9,1.8-3.7,1.8c-2.4,0-3.9-1.3-3.9-3.1c0-1.7,1.1-3.1,4.2-3.1h3.4v-0.7
			c0-1.8-1-2.9-3.1-2.9c-1.4,0-2.7,0.5-3.6,1.3l-0.7-1.1c1.1-0.9,2.7-1.5,4.4-1.5C321.4,99.1,323,100.5,323,103.3z M321.6,106.7
			v-1.8h-3.4c-2.1,0-2.8,0.8-2.8,1.9c0,1.3,1,2,2.7,2C319.8,108.9,321,108.1,321.6,106.7z"/>
		<path class="st2" d="M337.9,104.5c0,3.3-2.3,5.5-5.4,5.5c-1.7,0-3.2-0.7-4.1-2.1v6H327V99.2h1.4v2.1c0.9-1.4,2.4-2.2,4.2-2.2
			C335.6,99.1,337.9,101.3,337.9,104.5z M336.5,104.5c0-2.5-1.7-4.2-4-4.2c-2.3,0-4,1.7-4,4.2c0,2.5,1.7,4.2,4,4.2
			C334.7,108.8,336.5,107.1,336.5,104.5z"/>
		<path class="st2" d="M352,109.3c-0.6,0.5-1.4,0.8-2.3,0.8c-2,0-3.2-1.1-3.2-3.1v-6.5h-1.9v-1.2h1.9v-2.4h1.5v2.4h3.3v1.2H348v6.4
			c0,1.3,0.7,2,1.9,2c0.6,0,1.2-0.2,1.6-0.6L352,109.3z"/>
		<path class="st2" d="M353.1,104.5c0-3.2,2.3-5.5,5.5-5.5c3.2,0,5.5,2.3,5.5,5.5c0,3.2-2.3,5.5-5.5,5.5
			C355.5,110,353.1,107.8,353.1,104.5z M362.6,104.5c0-2.5-1.7-4.2-4-4.2c-2.3,0-4,1.7-4,4.2c0,2.5,1.7,4.2,4,4.2
			C360.9,108.8,362.6,107.1,362.6,104.5z"/>
		<path class="st2" d="M382.9,108.6v1.3h-10.2V95.6h9.9v1.3h-8.3v5.1h7.4v1.3h-7.4v5.3H382.9z"/>
		<path class="st2" d="M394.2,103.3v6.7h-1.4v-1.7c-0.7,1.1-1.9,1.8-3.7,1.8c-2.4,0-3.9-1.3-3.9-3.1c0-1.7,1.1-3.1,4.2-3.1h3.4v-0.7
			c0-1.8-1-2.9-3.1-2.9c-1.4,0-2.7,0.5-3.6,1.3l-0.7-1.1c1.1-0.9,2.7-1.5,4.4-1.5C392.6,99.1,394.2,100.5,394.2,103.3z M392.7,106.7
			v-1.8h-3.4c-2.1,0-2.8,0.8-2.8,1.9c0,1.3,1,2,2.7,2C390.9,108.9,392.1,108.1,392.7,106.7z"/>
		<path class="st2" d="M403.8,109.3c-0.6,0.5-1.4,0.8-2.3,0.8c-2,0-3.2-1.1-3.2-3.1v-6.5h-1.9v-1.2h1.9v-2.4h1.5v2.4h3.3v1.2h-3.3
			v6.4c0,1.3,0.7,2,1.9,2c0.6,0,1.2-0.2,1.6-0.6L403.8,109.3z"/>
	</g>
	<g>
		<g>
			<path class="st0" d="M67.2,123.6c-24.3-2.4-43.4-23-43.4-47.9c0-21.2,13.8-39.3,32.9-45.7c0-2.1,0-4.3,0-6.4c0-0.2,0-0.4,0-0.6
				C34,29.6,17.2,50.7,17.2,75.7c0,30.2,24.6,54.8,54.8,54.8c6.6,0,13-1.2,18.9-3.3C80.1,129.3,71.8,126.1,67.2,123.6z"/>
			<path class="st0" d="M76.7,23.7c0.1,1.4,0.1,2.7,0.2,4.1c17.2,1.7,31.7,12.6,38.8,27.6c3-0.7,6.2,0.2,8.3,2.7
				c-6.9-20.3-25.4-35.3-47.6-37C76.6,21.9,76.7,22.8,76.7,23.7z"/>
			<path class="st3" d="M109.6,99.8c-0.6-0.5-1.2-0.7-1.9-0.7c-1.6,0-3.2,0.1-4.8,0c-1.2-0.1-2.3-0.2-3.4-0.6
				c-1.5-0.5-2.6-1.4-3.7-2.5c-2.7-3-5.2-6.2-7.6-9.4c-3.8-4.9-7.4-9.9-11-14.9c-0.2-0.2-0.3-0.5-0.4-0.7c0-0.2,0-0.4,0-0.6
				c0.2-0.4,0.4-0.5,0.8-0.2c0.3,0.3,0.5,0.6,0.8,0.9c1.9,2,3.8,4,5.6,6c0.5,0.6,1.1,1.2,1.7,1.7c1.3,1.3,2.5,2.7,3.8,4
				c1.6,1.6,3.1,3.3,4.7,4.9c0.4,0.4,0.8,0.9,1.2,1.3c0.1,0.1,0.3,0.3,0.4,0.3c0.2,0.1,0.5,0.2,0.7,0c0.2-0.2,0.4-0.5,0.3-0.8
				c-0.1-0.3-0.3-0.6-0.5-0.8c-1.7-1.9-3.4-3.9-5.2-5.8c-1.4-1.5-2.8-3.1-4.1-4.6c-1.3-1.5-2.6-3-3.9-4.5c-1.1-1.2-2.1-2.4-3.2-3.6
				c-0.2-0.3-0.5-0.6-0.6-0.9c-0.1-0.2-0.1-0.4,0.1-0.6c0.2-0.2,0.4-0.2,0.6-0.1c0.2,0.1,0.4,0.2,0.6,0.4c1.7,1.7,3.4,3.4,5.2,5.1
				c4.3,4.2,8.5,8.5,12.7,12.7c0.2,0.2,0.4,0.3,0.6,0.4c0.4,0.2,0.7,0.2,1,0c0.3-0.3,0.4-0.7,0.3-1.1c-0.1-0.3-0.4-0.6-0.6-0.8
				c-3.4-3.4-6.8-6.7-10.1-10.1c-2.5-2.5-5-5.1-7.5-7.6c-0.1-0.1-0.3-0.3-0.4-0.5c-0.1-0.2-0.2-0.5,0-0.7c0.2-0.2,0.4-0.1,0.7,0
				c0.3,0.1,0.5,0.3,0.7,0.5c0.8,0.7,1.6,1.4,2.4,2.1c1.5,1.3,3.1,2.7,4.6,4.1c1.3,1.1,2.5,2.3,3.8,3.4c1.3,1.1,2.5,2.3,3.8,3.4
				c1.3,1.1,2.5,2.2,3.8,3.4c0.3,0.2,0.5,0.4,0.8,0.6c0.4,0.2,0.7,0.1,0.9-0.2c0.2-0.3,0.2-0.6-0.1-0.9c-0.4-0.5-0.9-1-1.4-1.4
				c-0.9-0.8-1.8-1.7-2.7-2.6c-1.8-1.7-3.6-3.4-5.4-5.1c-0.6-0.6-1.2-1.1-1.8-1.7c-1.9-1.8-3.8-3.6-5.7-5.3c-0.7-0.6-1.3-1.3-2-1.9
				c-0.2-0.1-0.3-0.3-0.3-0.6c0.1-0.2,0.2-0.3,0.4-0.3c0.1,0,0.3,0,0.4,0c0.4,0,0.7,0.1,1,0.4c3.7,2.7,7.4,5.4,11.1,8.2
				c2.9,2.2,5.8,4.4,8.6,6.6c1.6,1.3,3.3,2.7,4.8,4.1c1.6,1.5,2.4,3.3,2.6,5.4c0.3,1.9,0.2,3.8,0.2,5.7c0,1.8,0,1.8,1.2,3.1
				c1.7,1.9,3.5,3.6,5.3,5.4c4.9-9.2,6-17.7,6-17.7l0.7-5c0,0,0-9.6-0.3-14.4c-0.1-1-0.2-2.1-0.7-3c-2.7-5.3-9.7-6.1-13.7-1.7
				c-1,1.1-1.5,2.4-2,4c-0.2-0.8-0.2-1.5-0.2-2.1c0-1.8,0-3.7-0.6-5.4c-1.1-3.3-3.3-5.4-6.8-5.8c-3.4-0.4-6.2,0.7-7.9,3.9
				c-0.5,0.9-1,1.7-1.4,2.5c-0.2-0.7-0.2-1.3-0.2-1.9c-0.1-3.7-2.6-6.9-6.2-7.9c-3.9-1-7.4,0.6-9.6,4.4c0,0.4-0.5,0.7-0.5,1.2l0,0
				c-0.1,0.2,0,0.6-0.5,0.4c0-1.5,0-2.9-0.1-4.4c-0.1-8.4,0-16.8-0.4-25.2c0-1-0.1-2-0.5-3c-1.4-3.6-5.2-5.8-9-5.1c-4,0.7-7,4.1-7,8
				c0,3.5,0,7.1,0,10.6c0,12.9,0,38.5-0.1,48.4c2.2,1.9,4.5,3.7,6.7,5.5c0.6,0.5,1.3,1,2,1.4c2,1.2,4.1,1.4,6.3,0.7
				c3.4-1.1,6.5-0.5,9.4,1.5c2.1,1.4,3.9,3.1,5.5,5c2.2,2.7,3.9,5.6,4.9,8.8c0.6,1.8,0.9,3.6,0.6,5.4c-0.4,2.3-1.8,3.6-3.9,4.2
				c-2,0.6-4,0.5-6.1,0.1c-4.9-1-9.3-3.2-13-6.5c-1.3-1.1-2.5-2.3-3.3-3.8c-1.1-2.1-1.4-4.2-1.1-6.5c0.4-2.7-0.4-4.9-2.4-6.8
				c-1.9-1.8-5.8-5-5.8-5c-0.3-0.1-5.8-3.6-8.7-5.9c-1.4-1.1-4.7-2.5-8.5-3.8c-4.7-1.5-11.5,0.6-13.2,5.2c-1.4,3.7-0.2,7.2,2.6,10.1
				c1.7,1.8,3.8,2.9,8.9,4c4.4,4.5,16.1,18.5,22.8,21.8c0,0,15.2,13.2,37.5,3c7.6-3.5,12.9-8.8,16.7-14.4
				C114.3,104.3,112,102,109.6,99.8z"/>
		</g>
		<path class="st1" d="M125.9,79.2c0,0,0-9.6-0.3-14.4c-0.1-1-0.2-2.1-0.7-3c-2.7-5.3-9.7-6.1-13.7-1.7c-1,1.1-1.5,2.4-2,4
			c-0.2-0.8-0.2-1.5-0.2-2.1c0-1.8,0-3.7-0.6-5.4c-1.1-3.3-3.3-5.4-6.8-5.8c-3.4-0.4-6.2,0.7-7.9,3.9c-0.5,0.9-1,1.7-1.4,2.5
			c-0.2-0.7-0.2-1.3-0.2-1.9c-0.1-3.7-2.6-6.9-6.2-7.9c-3.9-1-7.4,0.6-9.6,4.4c0,0.4-0.5,0.7-0.5,1.2l0,0c-0.1,0.2,0,0.6-0.5,0.4
			c0-1.5,0-2.9-0.1-4.4c-0.1-8.4,0-16.8-0.4-25.2c0-1-0.1-2-0.5-3c-1.4-3.6-5.2-5.8-9-5.1c-4,0.7-7,4.1-7,8c0,3.5,0,7.1,0,10.6
			c0,12.7,0,42.1-0.1,52.5c-0.1-0.1-0.1-0.1-0.1-0.1c-0.3-0.1-5.8-3.6-8.7-5.9c-1.4-1.1-4.7-2.5-8.5-3.8c-4.7-1.5-11.5,0.6-13.2,5.2
			c-1.4,3.7-0.2,7.2,2.6,10.1c1.7,1.8,3.8,2.9,8.9,4c4.4,4.5,16.1,18.5,22.8,21.8c0,0,15.2,13.2,37.5,3c7.4-3.4,12.7-8.7,16.5-14.1
			c0,0,0,0,0,0c0.8-1.1,2.5-4,3-5c0,0,0,0,0,0c0-0.1,0.1-0.2,0.1-0.3c0,0,0,0,0,0l0,0c4.8-9.1,5.8-17.4,5.8-17.4L125.9,79.2z"/>
		<path class="st4" d="M92.7,106c1,0.2,1.9,0.4,2.7,0.5c0.2,0,0.4,0.1,0.5,0c1.9-0.5,3.7-1,5.3-2.3c0.3-0.2,0.5-0.4,0.7-0.7
			c0.5-0.6,1-1.2,1.7-1.5c0.3-0.2,0.6-0.3,0.9,0c0.3,0.3,0.3,0.6,0.1,0.9c-0.6,1.3-1.3,2.4-2.4,3.4c-2.1,1.9-4.7,2.8-7.2,3.7
			c-1.1,0.4-2.3,0.1-3.4,0c-3-0.4-5.9-0.9-8.9-0.8c-0.4,0-0.5,0.1-0.5,0.5c0,1-0.2,1.2-1.2,1.2c-2.5,0-5,0-7.4,0
			c-0.8,0-1.1-0.3-1.1-1.1c0-2.3,0-4.7,0-7c0-0.9,0.3-1.1,1.2-1.1c2.4,0.1,4.8,0.3,7.3,0.4c0.6,0,1.2,0,1.3,0.8
			c0,0.2,0.2,0.1,0.3,0.1c0.4,0,0.7-0.1,1-0.3c1.6-1.2,3.3-1.1,5.1-0.8c1.2,0.2,2.4,0.5,3.5,0.9c1,0.3,1.9,0.3,2.9,0
			c0.9-0.3,1.8-0.4,2.8-0.2c0.2,0.1,0.5,0.1,0.6,0.3c0.5,0.4,0.6,1,0,1.4c-0.6,0.4-1.2,0.6-1.9,0.7C95.3,105.3,94,105.5,92.7,106z"
			/>
		<g>
			<path class="st4" d="M69.1,96.8v0.4c0,1.2,1,2.2,2.2,2.2h34.5c1.2,0,2.2-1,2.2-2.2v-0.4H69.1z"/>
			<path class="st4" d="M106.4,96.3c0-0.2,0-0.4,0-0.6c0-8.4-6.4-15.4-14.9-16.8c0-1.6-1.4-2.9-3-2.9c-1.6,0-3,1.3-3,2.9
				c-8.5,1.4-14.9,8.4-14.9,16.8c0,0.2,0,0.4,0,0.6H106.4z M88.5,76.9c1.1,0,2,0.8,2.1,1.9c-0.7-0.1-1.4-0.1-2.1-0.1
				c-0.7,0-1.4,0-2.1,0.1C86.6,77.7,87.5,76.9,88.5,76.9z"/>
		</g>
		<path class="st4" d="M82.4,68.7c0,0.3,0,0.5,0,0.7c-0.1,0.7-0.1,1.3-0.1,2c0,0.5,0.1,1.1,0.4,1.6c0.1,0.2,0.2,0.3,0.4,0.5
			c0.6,0.7,0.8,1.5,0.7,2.3c-0.1,1.1-0.5,2.1-1.2,2.9c0,0-0.1,0.1-0.1,0.1c0-0.3,0.1-0.5,0.1-0.8c0.1-0.7,0.1-1.3,0.1-2
			c-0.1-0.7-0.2-1.3-0.7-1.8c-0.5-0.6-0.8-1.4-0.7-2.2C81.2,70.8,81.6,69.7,82.4,68.7z"/>
		<path class="st4" d="M93.7,78.2c0-0.4,0.1-0.8,0.1-1.2c0.1-0.7,0.1-1.4,0-2.1c-0.1-0.4-0.2-0.8-0.5-1.1c-0.5-0.5-0.8-1.1-0.9-1.8
			c-0.1-0.9,0.1-1.8,0.5-2.6c0.2-0.4,0.4-0.7,0.6-1c0-0.1,0.1-0.1,0.2-0.2c0,0.2,0,0.4,0,0.6c-0.1,0.7-0.1,1.5-0.1,2.2
			c0,0.5,0.1,1,0.4,1.4c0.1,0.1,0.2,0.3,0.3,0.4c0.7,0.9,0.9,1.9,0.7,3C94.8,76.7,94.4,77.5,93.7,78.2z"/>
		<path class="st4" d="M88.4,62C88.4,62.1,88.4,62.1,88.4,62c0,0.8-0.1,1.6-0.1,2.3c0,0.6,0.1,1.1,0.3,1.6c0.1,0.2,0.2,0.4,0.4,0.6
			c0.8,0.9,1,1.9,0.7,3.1c-0.2,0.8-0.5,1.6-1,2.2c0,0.1-0.1,0.1-0.2,0.2c0-0.5,0.1-1,0.1-1.6c0-0.8,0.1-1.6-0.2-2.3
			c-0.1-0.2-0.2-0.4-0.4-0.6c-0.7-0.8-1-1.7-0.9-2.7C87.3,63.8,87.7,62.9,88.4,62z"/>
	</g>
</g>
</svg>
